<svg xmlns="http://www.w3.org/2000/svg" xmlns:xlink="http://www.w3.org/1999/xlink" width="140" zoomAndPan="magnify" viewBox="0 0 104.88 37.5" height="50" preserveAspectRatio="xMidYMid meet" version="1.0"><defs><g/><clipPath id="f3d6a7d5ad"><path d="M 0.628906 7.347656 L 26.535156 7.347656 L 26.535156 29.554688 L 0.628906 29.554688 Z M 0.628906 7.347656 " clip-rule="nonzero"/></clipPath><clipPath id="ba82e07e7c"><path d="M 26.535156 17.21875 L 26.535156 16.699219 L 26.023438 16.640625 C 25.886719 16.628906 24.414062 16.480469 22.503906 16.769531 L 22.503906 12.980469 L 21.855469 13.0625 C 20.789062 13.203125 19.796875 13.410156 18.878906 13.679688 C 17.882812 11.542969 16.234375 9.527344 13.945312 7.652344 L 13.582031 7.355469 L 13.222656 7.652344 C 10.929688 9.527344 9.285156 11.542969 8.289062 13.679688 C 7.371094 13.410156 6.378906 13.203125 5.308594 13.0625 L 4.660156 12.980469 L 4.660156 16.769531 C 2.753906 16.480469 1.28125 16.628906 1.140625 16.640625 L 0.632812 16.699219 L 0.632812 17.21875 C 0.632812 21.476562 1.765625 24.71875 4.003906 26.859375 C 5.855469 28.625 8.402344 29.546875 11.40625 29.546875 C 11.644531 29.546875 11.882812 29.542969 12.125 29.53125 L 12.949219 29.53125 L 12.785156 28.816406 C 12.378906 27.039062 11.707031 22.742188 13.582031 19.242188 C 15.460938 22.742188 14.785156 27.039062 14.378906 28.816406 L 14.214844 29.53125 L 15.039062 29.53125 C 15.28125 29.542969 15.523438 29.546875 15.757812 29.546875 C 18.765625 29.546875 21.3125 28.625 23.164062 26.859375 C 25.402344 24.71875 26.535156 21.476562 26.535156 17.21875 Z M 21.359375 14.304688 L 21.359375 16.988281 C 20.894531 17.097656 20.417969 17.234375 19.9375 17.40625 C 19.835938 16.503906 19.628906 15.621094 19.320312 14.753906 C 19.957031 14.574219 20.636719 14.421875 21.359375 14.304688 Z M 5.808594 14.304688 C 6.527344 14.421875 7.207031 14.574219 7.847656 14.753906 C 7.535156 15.621094 7.332031 16.503906 7.230469 17.40625 C 6.75 17.234375 6.269531 17.097656 5.808594 16.988281 Z M 4.789062 26.015625 C 2.882812 24.195312 1.875 21.421875 1.785156 17.761719 C 2.378906 17.742188 3.433594 17.753906 4.660156 17.960938 L 4.660156 21.394531 C 4.660156 24.019531 7.238281 26.648438 9.777344 28.285156 C 8.101562 28.0625 6.28125 27.441406 4.789062 26.015625 Z M 5.808594 21.394531 L 5.808594 18.203125 C 6.25 18.320312 6.703125 18.460938 7.15625 18.640625 C 7.132812 22.113281 8.621094 25.078125 9.925781 27.003906 C 7.683594 25.441406 5.808594 23.230469 5.808594 21.394531 Z M 11.308594 26.953125 C 10.09375 25.296875 8.457031 22.480469 8.3125 19.175781 C 9.488281 19.816406 10.59375 20.738281 11.425781 22.0625 C 11.101562 23.832031 11.148438 25.5625 11.308594 26.953125 Z M 11.789062 20.582031 C 10.792969 19.328125 9.582031 18.460938 8.335938 17.867188 C 8.410156 16.929688 8.613281 16.011719 8.9375 15.109375 C 10.683594 15.757812 12.0625 16.683594 13.058594 17.882812 C 12.488281 18.742188 12.078125 19.65625 11.789062 20.582031 Z M 13.582031 16.738281 C 12.507812 15.585938 11.101562 14.6875 9.386719 14.042969 C 10.261719 12.222656 11.664062 10.488281 13.582031 8.851562 C 15.503906 10.488281 16.902344 12.222656 17.777344 14.042969 C 16.0625 14.6875 14.660156 15.585938 13.582031 16.738281 Z M 14.105469 17.882812 C 15.105469 16.683594 16.484375 15.757812 18.226562 15.109375 C 18.554688 16.011719 18.753906 16.929688 18.832031 17.867188 C 17.585938 18.460938 16.375 19.328125 15.378906 20.582031 C 15.089844 19.65625 14.679688 18.742188 14.105469 17.882812 Z M 15.742188 22.0625 C 16.574219 20.738281 17.679688 19.816406 18.851562 19.175781 C 18.710938 22.480469 17.074219 25.296875 15.855469 26.953125 C 16.015625 25.5625 16.0625 23.832031 15.742188 22.0625 Z M 20.007812 18.640625 C 20.460938 18.460938 20.914062 18.320312 21.359375 18.203125 L 21.359375 21.394531 C 21.359375 23.230469 19.480469 25.441406 17.238281 27.003906 C 18.546875 25.078125 20.03125 22.113281 20.007812 18.640625 Z M 22.375 26.015625 C 20.886719 27.441406 19.066406 28.0625 17.390625 28.285156 C 19.925781 26.648438 22.503906 24.023438 22.503906 21.394531 L 22.503906 17.960938 C 23.734375 17.753906 24.789062 17.742188 25.382812 17.761719 C 25.292969 21.421875 24.28125 24.195312 22.375 26.015625 Z M 22.375 26.015625 " clip-rule="nonzero"/></clipPath><linearGradient x1="3025" gradientTransform="matrix(0.0473403, 0, 0, 0.0477963, -129.62127, -111.542697)" y1="2487.62981" x2="3025" gradientUnits="userSpaceOnUse" y2="2951.929814" id="43b583d1f2"><stop stop-opacity="1" stop-color="rgb(100%, 100%, 100%)" offset="0"/><stop stop-opacity="1" stop-color="rgb(100%, 100%, 100%)" offset="0.125"/><stop stop-opacity="1" stop-color="rgb(100%, 100%, 100%)" offset="0.15625"/><stop stop-opacity="1" stop-color="rgb(99.865723%, 99.899292%, 99.942017%)" offset="0.164063"/><stop stop-opacity="1" stop-color="rgb(99.545288%, 99.658203%, 99.803162%)" offset="0.171875"/><stop stop-opacity="1" stop-color="rgb(99.172974%, 99.377441%, 99.641418%)" offset="0.179688"/><stop stop-opacity="1" stop-color="rgb(98.799133%, 99.09668%, 99.479675%)" offset="0.1875"/><stop stop-opacity="1" stop-color="rgb(98.425293%, 98.815918%, 99.317932%)" offset="0.195313"/><stop stop-opacity="1" stop-color="rgb(98.052979%, 98.535156%, 99.156189%)" offset="0.203125"/><stop stop-opacity="1" stop-color="rgb(97.679138%, 98.254395%, 98.994446%)" offset="0.210938"/><stop stop-opacity="1" stop-color="rgb(97.305298%, 97.973633%, 98.832703%)" offset="0.21875"/><stop stop-opacity="1" stop-color="rgb(96.932983%, 97.691345%, 98.670959%)" offset="0.226563"/><stop stop-opacity="1" stop-color="rgb(96.559143%, 97.410583%, 98.509216%)" offset="0.234375"/><stop stop-opacity="1" stop-color="rgb(96.185303%, 97.129822%, 98.347473%)" offset="0.242188"/><stop stop-opacity="1" stop-color="rgb(95.812988%, 96.84906%, 98.18573%)" offset="0.25"/><stop stop-opacity="1" stop-color="rgb(95.439148%, 96.568298%, 98.025513%)" offset="0.257812"/><stop stop-opacity="1" stop-color="rgb(95.065308%, 96.287537%, 97.86377%)" offset="0.265625"/><stop stop-opacity="1" stop-color="rgb(94.691467%, 96.006775%, 97.702026%)" offset="0.273438"/><stop stop-opacity="1" stop-color="rgb(94.319153%, 95.726013%, 97.540283%)" offset="0.28125"/><stop stop-opacity="1" stop-color="rgb(93.945312%, 95.445251%, 97.37854%)" offset="0.289063"/><stop stop-opacity="1" stop-color="rgb(93.571472%, 95.162964%, 97.216797%)" offset="0.296875"/><stop stop-opacity="1" stop-color="rgb(93.199158%, 94.882202%, 97.055054%)" offset="0.304688"/><stop stop-opacity="1" stop-color="rgb(92.825317%, 94.60144%, 96.893311%)" offset="0.3125"/><stop stop-opacity="1" stop-color="rgb(92.451477%, 94.320679%, 96.731567%)" offset="0.320312"/><stop stop-opacity="1" stop-color="rgb(92.079163%, 94.039917%, 96.569824%)" offset="0.328125"/><stop stop-opacity="1" stop-color="rgb(91.705322%, 93.759155%, 96.408081%)" offset="0.335938"/><stop stop-opacity="1" stop-color="rgb(91.331482%, 93.478394%, 96.246338%)" offset="0.34375"/><stop stop-opacity="1" stop-color="rgb(90.959167%, 93.197632%, 96.084595%)" offset="0.351563"/><stop stop-opacity="1" stop-color="rgb(90.585327%, 92.91687%, 95.922852%)" offset="0.359375"/><stop stop-opacity="1" stop-color="rgb(90.211487%, 92.634583%, 95.761108%)" offset="0.367188"/><stop stop-opacity="1" stop-color="rgb(89.837646%, 92.353821%, 95.599365%)" offset="0.375"/><stop stop-opacity="1" stop-color="rgb(89.465332%, 92.073059%, 95.437622%)" offset="0.382813"/><stop stop-opacity="1" stop-color="rgb(89.091492%, 91.792297%, 95.275879%)" offset="0.390625"/><stop stop-opacity="1" stop-color="rgb(88.717651%, 91.511536%, 95.114136%)" offset="0.398438"/><stop stop-opacity="1" stop-color="rgb(88.345337%, 91.230774%, 94.952393%)" offset="0.40625"/><stop stop-opacity="1" stop-color="rgb(87.971497%, 90.950012%, 94.790649%)" offset="0.414063"/><stop stop-opacity="1" stop-color="rgb(87.597656%, 90.66925%, 94.628906%)" offset="0.421875"/><stop stop-opacity="1" stop-color="rgb(87.225342%, 90.388489%, 94.467163%)" offset="0.429688"/><stop stop-opacity="1" stop-color="rgb(86.851501%, 90.106201%, 94.306946%)" offset="0.4375"/><stop stop-opacity="1" stop-color="rgb(86.477661%, 89.825439%, 94.145203%)" offset="0.445312"/><stop stop-opacity="1" stop-color="rgb(86.105347%, 89.544678%, 93.983459%)" offset="0.453125"/><stop stop-opacity="1" stop-color="rgb(85.731506%, 89.263916%, 93.821716%)" offset="0.460938"/><stop stop-opacity="1" stop-color="rgb(85.357666%, 88.983154%, 93.659973%)" offset="0.46875"/><stop stop-opacity="1" stop-color="rgb(84.983826%, 88.702393%, 93.49823%)" offset="0.476563"/><stop stop-opacity="1" stop-color="rgb(84.611511%, 88.421631%, 93.336487%)" offset="0.484375"/><stop stop-opacity="1" stop-color="rgb(84.237671%, 88.140869%, 93.174744%)" offset="0.492188"/><stop stop-opacity="1" stop-color="rgb(83.863831%, 87.860107%, 93.013%)" offset="0.5"/><stop stop-opacity="1" stop-color="rgb(83.491516%, 87.57782%, 92.851257%)" offset="0.507813"/><stop stop-opacity="1" stop-color="rgb(83.117676%, 87.297058%, 92.689514%)" offset="0.515625"/><stop stop-opacity="1" stop-color="rgb(82.743835%, 87.016296%, 92.527771%)" offset="0.523438"/><stop stop-opacity="1" stop-color="rgb(82.371521%, 86.735535%, 92.366028%)" offset="0.53125"/><stop stop-opacity="1" stop-color="rgb(81.997681%, 86.454773%, 92.204285%)" offset="0.539062"/><stop stop-opacity="1" stop-color="rgb(81.62384%, 86.174011%, 92.042542%)" offset="0.546875"/><stop stop-opacity="1" stop-color="rgb(81.25%, 85.89325%, 91.880798%)" offset="0.554688"/><stop stop-opacity="1" stop-color="rgb(80.877686%, 85.612488%, 91.719055%)" offset="0.5625"/><stop stop-opacity="1" stop-color="rgb(80.503845%, 85.331726%, 91.557312%)" offset="0.570313"/><stop stop-opacity="1" stop-color="rgb(80.130005%, 85.049438%, 91.395569%)" offset="0.578125"/><stop stop-opacity="1" stop-color="rgb(79.75769%, 84.768677%, 91.233826%)" offset="0.585938"/><stop stop-opacity="1" stop-color="rgb(79.38385%, 84.487915%, 91.072083%)" offset="0.59375"/><stop stop-opacity="1" stop-color="rgb(79.01001%, 84.207153%, 90.910339%)" offset="0.601563"/><stop stop-opacity="1" stop-color="rgb(78.637695%, 83.926392%, 90.750122%)" offset="0.609375"/><stop stop-opacity="1" stop-color="rgb(78.263855%, 83.64563%, 90.588379%)" offset="0.617188"/><stop stop-opacity="1" stop-color="rgb(77.890015%, 83.364868%, 90.426636%)" offset="0.625"/><stop stop-opacity="1" stop-color="rgb(77.5177%, 83.084106%, 90.264893%)" offset="0.632813"/><stop stop-opacity="1" stop-color="rgb(77.14386%, 82.803345%, 90.103149%)" offset="0.640625"/><stop stop-opacity="1" stop-color="rgb(76.77002%, 82.521057%, 89.941406%)" offset="0.648438"/><stop stop-opacity="1" stop-color="rgb(76.396179%, 82.240295%, 89.779663%)" offset="0.65625"/><stop stop-opacity="1" stop-color="rgb(76.023865%, 81.959534%, 89.61792%)" offset="0.664063"/><stop stop-opacity="1" stop-color="rgb(75.650024%, 81.678772%, 89.456177%)" offset="0.671875"/><stop stop-opacity="1" stop-color="rgb(75.276184%, 81.39801%, 89.294434%)" offset="0.679688"/><stop stop-opacity="1" stop-color="rgb(74.90387%, 81.117249%, 89.13269%)" offset="0.6875"/><stop stop-opacity="1" stop-color="rgb(74.530029%, 80.836487%, 88.970947%)" offset="0.695312"/><stop stop-opacity="1" stop-color="rgb(74.156189%, 80.555725%, 88.809204%)" offset="0.703125"/><stop stop-opacity="1" stop-color="rgb(73.783875%, 80.274963%, 88.647461%)" offset="0.710938"/><stop stop-opacity="1" stop-color="rgb(73.410034%, 79.992676%, 88.485718%)" offset="0.71875"/><stop stop-opacity="1" stop-color="rgb(73.036194%, 79.711914%, 88.323975%)" offset="0.726563"/><stop stop-opacity="1" stop-color="rgb(72.663879%, 79.431152%, 88.162231%)" offset="0.734375"/><stop stop-opacity="1" stop-color="rgb(72.290039%, 79.150391%, 88.000488%)" offset="0.742188"/><stop stop-opacity="1" stop-color="rgb(71.916199%, 78.869629%, 87.838745%)" offset="0.75"/><stop stop-opacity="1" stop-color="rgb(71.542358%, 78.588867%, 87.677002%)" offset="0.757813"/><stop stop-opacity="1" stop-color="rgb(71.170044%, 78.308105%, 87.515259%)" offset="0.765625"/><stop stop-opacity="1" stop-color="rgb(70.796204%, 78.027344%, 87.353516%)" offset="0.773438"/><stop stop-opacity="1" stop-color="rgb(70.422363%, 77.746582%, 87.191772%)" offset="0.78125"/><stop stop-opacity="1" stop-color="rgb(70.050049%, 77.464294%, 87.031555%)" offset="0.789062"/><stop stop-opacity="1" stop-color="rgb(69.676208%, 77.183533%, 86.869812%)" offset="0.796875"/><stop stop-opacity="1" stop-color="rgb(69.302368%, 76.902771%, 86.708069%)" offset="0.804688"/><stop stop-opacity="1" stop-color="rgb(68.930054%, 76.622009%, 86.546326%)" offset="0.8125"/><stop stop-opacity="1" stop-color="rgb(68.556213%, 76.341248%, 86.384583%)" offset="0.820313"/><stop stop-opacity="1" stop-color="rgb(68.182373%, 76.060486%, 86.222839%)" offset="0.828125"/><stop stop-opacity="1" stop-color="rgb(67.808533%, 75.779724%, 86.061096%)" offset="0.835938"/><stop stop-opacity="1" stop-color="rgb(67.436218%, 75.498962%, 85.899353%)" offset="0.84375"/><stop stop-opacity="1" stop-color="rgb(67.062378%, 75.218201%, 85.73761%)" offset="0.851563"/><stop stop-opacity="1" stop-color="rgb(66.688538%, 74.935913%, 85.575867%)" offset="0.859375"/><stop stop-opacity="1" stop-color="rgb(66.316223%, 74.655151%, 85.414124%)" offset="0.867188"/><stop stop-opacity="1" stop-color="rgb(65.942383%, 74.37439%, 85.25238%)" offset="0.875"/><stop stop-opacity="1" stop-color="rgb(65.568542%, 74.093628%, 85.090637%)" offset="0.882813"/><stop stop-opacity="1" stop-color="rgb(65.196228%, 73.812866%, 84.928894%)" offset="0.890625"/><stop stop-opacity="1" stop-color="rgb(64.822388%, 73.532104%, 84.767151%)" offset="0.898438"/><stop stop-opacity="1" stop-color="rgb(64.448547%, 73.251343%, 84.605408%)" offset="0.90625"/><stop stop-opacity="1" stop-color="rgb(64.076233%, 72.970581%, 84.443665%)" offset="0.914063"/><stop stop-opacity="1" stop-color="rgb(63.702393%, 72.689819%, 84.281921%)" offset="0.921875"/><stop stop-opacity="1" stop-color="rgb(63.328552%, 72.407532%, 84.120178%)" offset="0.929688"/><stop stop-opacity="1" stop-color="rgb(62.954712%, 72.12677%, 83.958435%)" offset="0.9375"/><stop stop-opacity="1" stop-color="rgb(62.582397%, 71.846008%, 83.796692%)" offset="0.945312"/><stop stop-opacity="1" stop-color="rgb(62.208557%, 71.565247%, 83.634949%)" offset="0.953125"/><stop stop-opacity="1" stop-color="rgb(61.834717%, 71.284485%, 83.474731%)" offset="0.960938"/><stop stop-opacity="1" stop-color="rgb(61.462402%, 71.003723%, 83.312988%)" offset="0.96875"/><stop stop-opacity="1" stop-color="rgb(61.088562%, 70.722961%, 83.151245%)" offset="0.976563"/><stop stop-opacity="1" stop-color="rgb(60.714722%, 70.4422%, 82.989502%)" offset="0.984375"/><stop stop-opacity="1" stop-color="rgb(60.342407%, 70.161438%, 82.827759%)" offset="0.992188"/><stop stop-opacity="1" stop-color="rgb(59.968567%, 69.87915%, 82.666016%)" offset="1"/></linearGradient></defs><g clip-path="url(#f3d6a7d5ad)"><g clip-path="url(#ba82e07e7c)"><path fill="url(#43b583d1f2)" d="M 0.632812 7.355469 L 0.632812 29.546875 L 26.535156 29.546875 L 26.535156 7.355469 Z M 0.632812 7.355469 " fill-rule="nonzero"/></g></g><g fill="#ffffff" fill-opacity="1"><g transform="translate(28.487126, 23.984464)"><g><path d="M 6.109375 -12.859375 L 6.109375 -13.171875 L 0.84375 -13.171875 L 0.84375 -12.859375 L 2.53125 -12.859375 L 2.53125 -0.3125 L 0.84375 -0.3125 L 0.84375 0 L 6.109375 0 L 6.109375 -0.3125 L 4.421875 -0.3125 L 4.421875 -12.859375 Z M 6.109375 -12.859375 "/></g></g></g><g fill="#ffffff" fill-opacity="1"><g transform="translate(35.444854, 23.984464)"><g><path d="M 3.765625 -6.1875 L 3.765625 -7.6875 L 0.703125 -7.6875 L 0.703125 -7.375 L 2.078125 -7.375 L 2.078125 -0.3125 L 0.703125 -0.3125 L 0.703125 0 L 5.140625 0 L 5.140625 -0.3125 L 3.765625 -0.3125 L 3.765625 -5.171875 C 3.765625 -5.390625 3.820312 -5.625 3.9375 -5.875 C 4.050781 -6.132812 4.203125 -6.375 4.390625 -6.59375 C 4.585938 -6.820312 4.804688 -7.007812 5.046875 -7.15625 C 5.285156 -7.300781 5.535156 -7.375 5.796875 -7.375 C 6.179688 -7.375 6.457031 -7.253906 6.625 -7.015625 C 6.800781 -6.773438 6.890625 -6.398438 6.890625 -5.890625 L 6.890625 -0.3125 L 5.53125 -0.3125 L 5.53125 0 L 9.953125 0 L 9.953125 -0.3125 L 8.578125 -0.3125 L 8.578125 -6.03125 C 8.578125 -6.707031 8.382812 -7.175781 8 -7.4375 C 7.613281 -7.707031 7.125 -7.84375 6.53125 -7.84375 C 5.8125 -7.84375 5.222656 -7.675781 4.765625 -7.34375 C 4.316406 -7.019531 3.984375 -6.632812 3.765625 -6.1875 Z M 3.765625 -6.1875 "/></g></g></g><g fill="#ffffff" fill-opacity="1"><g transform="translate(45.852043, 23.984464)"><g><path d="M 5.5625 -7.859375 L 5.109375 -7.40625 C 4.703125 -7.769531 4.207031 -7.953125 3.625 -7.953125 C 3.207031 -7.953125 2.832031 -7.882812 2.5 -7.75 C 2.175781 -7.613281 1.90625 -7.425781 1.6875 -7.1875 C 1.476562 -6.957031 1.316406 -6.691406 1.203125 -6.390625 C 1.085938 -6.085938 1.03125 -5.78125 1.03125 -5.46875 C 1.03125 -4.976562 1.171875 -4.550781 1.453125 -4.1875 C 1.734375 -3.820312 2.15625 -3.578125 2.71875 -3.453125 C 2.894531 -3.410156 3.085938 -3.363281 3.296875 -3.3125 C 3.503906 -3.269531 3.710938 -3.21875 3.921875 -3.15625 C 4.140625 -3.101562 4.347656 -3.039062 4.546875 -2.96875 C 4.753906 -2.894531 4.9375 -2.8125 5.09375 -2.71875 C 5.351562 -2.582031 5.53125 -2.414062 5.625 -2.21875 C 5.726562 -2.019531 5.78125 -1.816406 5.78125 -1.609375 C 5.78125 -1.328125 5.710938 -1.085938 5.578125 -0.890625 C 5.441406 -0.691406 5.265625 -0.53125 5.046875 -0.40625 C 4.835938 -0.28125 4.613281 -0.1875 4.375 -0.125 C 4.144531 -0.0703125 3.925781 -0.046875 3.71875 -0.046875 C 3.125 -0.046875 2.597656 -0.207031 2.140625 -0.53125 C 1.679688 -0.863281 1.359375 -1.378906 1.171875 -2.078125 C 1.128906 -2.191406 1.078125 -2.25 1.015625 -2.25 C 0.941406 -2.25 0.90625 -2.195312 0.90625 -2.09375 L 0.90625 0 C 0.90625 0.101562 0.941406 0.15625 1.015625 0.15625 C 1.066406 0.15625 1.113281 0.125 1.15625 0.0625 L 1.5625 -0.546875 C 1.800781 -0.296875 2.097656 -0.0976562 2.453125 0.046875 C 2.816406 0.203125 3.257812 0.28125 3.78125 0.28125 C 4.207031 0.28125 4.582031 0.207031 4.90625 0.0625 C 5.238281 -0.0703125 5.519531 -0.257812 5.75 -0.5 C 5.976562 -0.738281 6.148438 -1.019531 6.265625 -1.34375 C 6.390625 -1.664062 6.453125 -2.015625 6.453125 -2.390625 C 6.453125 -2.890625 6.328125 -3.359375 6.078125 -3.796875 C 5.828125 -4.242188 5.351562 -4.582031 4.65625 -4.8125 C 4.539062 -4.851562 4.390625 -4.894531 4.203125 -4.9375 C 4.023438 -4.988281 3.832031 -5.039062 3.625 -5.09375 C 3.425781 -5.144531 3.222656 -5.195312 3.015625 -5.25 C 2.816406 -5.300781 2.65625 -5.347656 2.53125 -5.390625 C 2.269531 -5.484375 2.082031 -5.597656 1.96875 -5.734375 C 1.851562 -5.867188 1.796875 -6.0625 1.796875 -6.3125 C 1.796875 -6.644531 1.957031 -6.945312 2.28125 -7.21875 C 2.613281 -7.5 3.03125 -7.640625 3.53125 -7.640625 C 3.84375 -7.640625 4.117188 -7.578125 4.359375 -7.453125 C 4.597656 -7.335938 4.800781 -7.1875 4.96875 -7 C 5.132812 -6.820312 5.265625 -6.617188 5.359375 -6.390625 C 5.453125 -6.160156 5.519531 -5.9375 5.5625 -5.71875 C 5.570312 -5.644531 5.613281 -5.609375 5.6875 -5.609375 C 5.738281 -5.609375 5.765625 -5.644531 5.765625 -5.71875 L 5.765625 -7.8125 C 5.765625 -7.90625 5.742188 -7.953125 5.703125 -7.953125 C 5.671875 -7.953125 5.625 -7.921875 5.5625 -7.859375 Z M 5.5625 -7.859375 "/></g></g></g><g fill="#ffffff" fill-opacity="1"><g transform="translate(52.829363, 23.984464)"><g><path d="M 7.265625 -3.421875 C 7.265625 -2.691406 7.222656 -2.109375 7.140625 -1.671875 C 7.066406 -1.234375 6.953125 -0.894531 6.796875 -0.65625 C 6.648438 -0.425781 6.472656 -0.269531 6.265625 -0.1875 C 6.054688 -0.113281 5.820312 -0.078125 5.5625 -0.078125 C 5.289062 -0.078125 5.03125 -0.128906 4.78125 -0.234375 C 4.53125 -0.347656 4.304688 -0.492188 4.109375 -0.671875 C 3.921875 -0.847656 3.765625 -1.039062 3.640625 -1.25 C 3.523438 -1.457031 3.46875 -1.660156 3.46875 -1.859375 L 3.46875 -5.65625 C 3.46875 -5.894531 3.53125 -6.128906 3.65625 -6.359375 C 3.789062 -6.597656 3.960938 -6.8125 4.171875 -7 C 4.378906 -7.1875 4.609375 -7.335938 4.859375 -7.453125 C 5.117188 -7.578125 5.375 -7.640625 5.625 -7.640625 C 5.832031 -7.640625 6.035156 -7.601562 6.234375 -7.53125 C 6.429688 -7.457031 6.609375 -7.304688 6.765625 -7.078125 C 6.921875 -6.847656 7.039062 -6.515625 7.125 -6.078125 C 7.21875 -5.640625 7.265625 -5.054688 7.265625 -4.328125 Z M 3.46875 -6.6875 L 3.46875 -7.6875 L 0.515625 -7.6875 L 0.515625 -7.375 L 1.78125 -7.375 L 1.78125 4.9375 L 0.515625 4.9375 L 0.515625 5.25 L 4.734375 5.25 L 4.734375 4.9375 L 3.46875 4.9375 L 3.46875 -0.84375 C 3.6875 -0.519531 3.972656 -0.25 4.328125 -0.03125 C 4.679688 0.175781 5.109375 0.28125 5.609375 0.28125 C 6.078125 0.28125 6.53125 0.171875 6.96875 -0.046875 C 7.414062 -0.273438 7.8125 -0.578125 8.15625 -0.953125 C 8.507812 -1.328125 8.789062 -1.765625 9 -2.265625 C 9.207031 -2.765625 9.3125 -3.296875 9.3125 -3.859375 C 9.3125 -4.421875 9.203125 -4.945312 8.984375 -5.4375 C 8.765625 -5.9375 8.476562 -6.375 8.125 -6.75 C 7.78125 -7.125 7.390625 -7.414062 6.953125 -7.625 C 6.515625 -7.84375 6.078125 -7.953125 5.640625 -7.953125 C 5.085938 -7.953125 4.640625 -7.8125 4.296875 -7.53125 C 3.953125 -7.257812 3.675781 -6.976562 3.46875 -6.6875 Z M 3.46875 -6.6875 "/></g></g></g><g fill="#ffffff" fill-opacity="1"><g transform="translate(62.628971, 23.984464)"><g><path d="M 7.703125 -4.765625 C 7.691406 -4.972656 7.625 -5.257812 7.5 -5.625 C 7.375 -5.988281 7.179688 -6.335938 6.921875 -6.671875 C 6.660156 -7.015625 6.3125 -7.3125 5.875 -7.5625 C 5.445312 -7.820312 4.921875 -7.953125 4.296875 -7.953125 C 3.765625 -7.953125 3.273438 -7.828125 2.828125 -7.578125 C 2.378906 -7.328125 1.988281 -7.003906 1.65625 -6.609375 C 1.332031 -6.222656 1.078125 -5.78125 0.890625 -5.28125 C 0.710938 -4.789062 0.625 -4.289062 0.625 -3.78125 C 0.625 -3.269531 0.710938 -2.769531 0.890625 -2.28125 C 1.078125 -1.800781 1.332031 -1.375 1.65625 -1 C 1.988281 -0.625 2.382812 -0.316406 2.84375 -0.078125 C 3.3125 0.160156 3.820312 0.28125 4.375 0.28125 C 4.8125 0.28125 5.210938 0.21875 5.578125 0.09375 C 5.953125 -0.03125 6.273438 -0.203125 6.546875 -0.421875 C 6.828125 -0.640625 7.066406 -0.890625 7.265625 -1.171875 C 7.460938 -1.460938 7.617188 -1.765625 7.734375 -2.078125 C 7.773438 -2.171875 7.796875 -2.257812 7.796875 -2.34375 C 7.796875 -2.4375 7.757812 -2.484375 7.6875 -2.484375 C 7.613281 -2.484375 7.550781 -2.421875 7.5 -2.296875 C 7.382812 -2.015625 7.238281 -1.738281 7.0625 -1.46875 C 6.882812 -1.195312 6.664062 -0.957031 6.40625 -0.75 C 6.15625 -0.539062 5.867188 -0.367188 5.546875 -0.234375 C 5.222656 -0.109375 4.84375 -0.046875 4.40625 -0.046875 C 3.882812 -0.046875 3.460938 -0.238281 3.140625 -0.625 C 2.828125 -1.019531 2.671875 -1.648438 2.671875 -2.515625 L 2.671875 -4.5 L 7.390625 -4.5 C 7.597656 -4.5 7.703125 -4.585938 7.703125 -4.765625 Z M 2.671875 -4.8125 L 2.671875 -5.609375 C 2.671875 -6.035156 2.71875 -6.378906 2.8125 -6.640625 C 2.90625 -6.910156 3.03125 -7.117188 3.1875 -7.265625 C 3.34375 -7.410156 3.519531 -7.507812 3.71875 -7.5625 C 3.914062 -7.613281 4.113281 -7.640625 4.3125 -7.640625 C 4.625 -7.640625 4.878906 -7.582031 5.078125 -7.46875 C 5.285156 -7.363281 5.445312 -7.21875 5.5625 -7.03125 C 5.675781 -6.851562 5.753906 -6.648438 5.796875 -6.421875 C 5.835938 -6.203125 5.859375 -5.972656 5.859375 -5.734375 C 5.859375 -5.117188 5.757812 -4.8125 5.5625 -4.8125 Z M 2.671875 -4.8125 "/></g></g></g><g fill="#ffffff" fill-opacity="1"><g transform="translate(71.13503, 23.984464)"><g><path d="M 3.484375 -6.546875 L 3.484375 -7.6875 L 0.4375 -7.6875 L 0.4375 -7.375 L 1.796875 -7.375 L 1.796875 -0.3125 L 0.4375 -0.3125 L 0.4375 0 L 4.859375 0 L 4.859375 -0.3125 L 3.484375 -0.3125 L 3.484375 -5.6875 C 3.484375 -5.894531 3.546875 -6.109375 3.671875 -6.328125 C 3.796875 -6.546875 3.957031 -6.742188 4.15625 -6.921875 C 4.363281 -7.109375 4.59375 -7.257812 4.84375 -7.375 C 5.09375 -7.488281 5.332031 -7.546875 5.5625 -7.546875 C 5.707031 -7.546875 5.832031 -7.535156 5.9375 -7.515625 C 6.050781 -7.492188 6.109375 -7.445312 6.109375 -7.375 C 6.109375 -7.300781 6.078125 -7.253906 6.015625 -7.234375 C 5.929688 -7.179688 5.835938 -7.09375 5.734375 -6.96875 C 5.628906 -6.84375 5.578125 -6.648438 5.578125 -6.390625 C 5.578125 -6.109375 5.671875 -5.878906 5.859375 -5.703125 C 6.046875 -5.535156 6.285156 -5.453125 6.578125 -5.453125 C 6.835938 -5.453125 7.066406 -5.535156 7.265625 -5.703125 C 7.460938 -5.878906 7.5625 -6.128906 7.5625 -6.453125 C 7.5625 -6.710938 7.507812 -6.929688 7.40625 -7.109375 C 7.300781 -7.285156 7.164062 -7.425781 7 -7.53125 C 6.84375 -7.644531 6.65625 -7.726562 6.4375 -7.78125 C 6.21875 -7.832031 6 -7.859375 5.78125 -7.859375 C 5.46875 -7.859375 5.1875 -7.8125 4.9375 -7.71875 C 4.6875 -7.625 4.460938 -7.507812 4.265625 -7.375 C 4.078125 -7.25 3.914062 -7.109375 3.78125 -6.953125 C 3.644531 -6.804688 3.546875 -6.671875 3.484375 -6.546875 Z M 3.484375 -6.546875 "/></g></g></g><g fill="#ffffff" fill-opacity="1"><g transform="translate(78.974715, 23.984464)"><g><path d="M 3.859375 -7.6875 L 0.703125 -7.6875 L 0.703125 -7.375 L 2.171875 -7.375 L 2.171875 -0.3125 L 0.703125 -0.3125 L 0.703125 0 L 5.328125 0 L 5.328125 -0.3125 L 3.859375 -0.3125 Z M 4.015625 -11.3125 C 4.015625 -11.59375 3.914062 -11.832031 3.71875 -12.03125 C 3.519531 -12.226562 3.28125 -12.328125 3 -12.328125 C 2.707031 -12.328125 2.460938 -12.226562 2.265625 -12.03125 C 2.078125 -11.832031 1.984375 -11.59375 1.984375 -11.3125 C 1.984375 -11.019531 2.078125 -10.773438 2.265625 -10.578125 C 2.460938 -10.378906 2.707031 -10.28125 3 -10.28125 C 3.28125 -10.28125 3.519531 -10.378906 3.71875 -10.578125 C 3.914062 -10.773438 4.015625 -11.019531 4.015625 -11.3125 Z M 4.015625 -11.3125 "/></g></g></g><g fill="#ffffff" fill-opacity="1"><g transform="translate(84.736884, 23.984464)"><g><path d="M 3.46875 -7.6875 L 3.46875 -10.75 L 1.78125 -9.921875 L 1.78125 -7.6875 L 0.453125 -7.6875 L 0.453125 -7.375 L 1.78125 -7.375 L 1.78125 -2.078125 C 1.78125 -1.347656 1.972656 -0.769531 2.359375 -0.34375 C 2.753906 0.0703125 3.328125 0.28125 4.078125 0.28125 C 4.847656 0.28125 5.390625 0.128906 5.703125 -0.171875 C 6.023438 -0.484375 6.234375 -0.910156 6.328125 -1.453125 C 6.335938 -1.515625 6.34375 -1.550781 6.34375 -1.5625 C 6.34375 -1.582031 6.34375 -1.601562 6.34375 -1.625 C 6.34375 -1.726562 6.304688 -1.78125 6.234375 -1.78125 C 6.128906 -1.78125 6.066406 -1.71875 6.046875 -1.59375 C 5.984375 -1.144531 5.832031 -0.789062 5.59375 -0.53125 C 5.363281 -0.28125 5.078125 -0.15625 4.734375 -0.15625 C 4.285156 -0.15625 3.960938 -0.3125 3.765625 -0.625 C 3.566406 -0.9375 3.46875 -1.40625 3.46875 -2.03125 L 3.46875 -7.375 L 5.375 -7.375 L 5.375 -7.6875 Z M 3.46875 -7.6875 "/></g></g></g><g fill="#ffffff" fill-opacity="1"><g transform="translate(91.361419, 23.984464)"><g><path d="M 0.59375 -7.6875 L 0.59375 -7.375 L 1.875 -7.375 L 5.15625 0.078125 L 4.015625 3.078125 C 3.847656 3.503906 3.660156 3.820312 3.453125 4.03125 C 3.253906 4.238281 3.0625 4.34375 2.875 4.34375 C 2.769531 4.34375 2.703125 4.316406 2.671875 4.265625 C 2.640625 4.210938 2.601562 4.148438 2.5625 4.078125 C 2.488281 3.910156 2.390625 3.78125 2.265625 3.6875 C 2.148438 3.601562 1.992188 3.5625 1.796875 3.5625 C 1.578125 3.5625 1.40625 3.632812 1.28125 3.78125 C 1.164062 3.925781 1.109375 4.097656 1.109375 4.296875 C 1.109375 4.535156 1.191406 4.726562 1.359375 4.875 C 1.523438 5.03125 1.773438 5.109375 2.109375 5.109375 C 2.566406 5.109375 2.992188 4.9375 3.390625 4.59375 C 3.785156 4.25 4.09375 3.773438 4.3125 3.171875 L 8.34375 -7.375 L 9.640625 -7.375 L 9.640625 -7.6875 L 6.546875 -7.6875 L 6.546875 -7.375 L 8 -7.375 L 5.953125 -2.03125 L 3.6875 -7.375 L 5.1875 -7.375 L 5.1875 -7.6875 Z M 0.59375 -7.6875 "/></g></g></g></svg>